<svg width="74" height="72" viewBox="0 0 74 72" fill="none" xmlns="http://www.w3.org/2000/svg">
<g clip-path="url(#clip0_10113_17586)">
<path d="M48.996 60.0016H49.9978C57.096 60.0016 64.1942 60.0016 71.2925 60.0016C72.6281 60.0016 72.99 60.3595 72.992 61.6772C72.992 63.0268 72.998 64.3765 72.992 65.7262C72.986 66.7599 72.5621 67.1898 71.5404 67.1978C70.4667 67.2058 69.3909 67.1998 68.1952 67.1998C68.1952 68.2555 68.1952 69.2933 68.1952 70.331C68.1932 71.6167 67.8233 71.9966 66.5616 71.9986C64.4622 72.0006 62.3627 71.9986 60.2632 71.9986C58.9755 71.9986 58.6016 71.6287 58.5976 70.365C58.5936 69.3912 58.5936 68.4155 58.5876 67.4417C58.5876 67.3957 58.5656 67.3478 58.5396 67.2518H41.7998C41.7998 68.3315 41.8038 69.3972 41.7998 70.463C41.7938 71.5867 41.3879 71.9946 40.2602 71.9986C38.0868 72.0026 35.9113 72.0026 33.7378 71.9986C32.6141 71.9966 32.2102 71.5887 32.2042 70.459C32.2002 69.4112 32.2042 68.3635 32.2042 67.2578H15.4044C15.4044 68.3155 15.4084 69.3812 15.4044 70.445C15.4004 71.5787 14.9945 71.9946 13.8828 71.9966C11.7094 72.0026 9.5339 72.0006 7.36044 71.9966C6.22672 71.9946 5.81483 71.5887 5.81083 70.475C5.80483 69.4072 5.81083 68.3395 5.81083 67.1998C4.67111 67.1998 3.60338 67.2038 2.53565 67.1998C1.42193 67.1938 1.01803 66.7819 1.01403 65.6502C1.01003 64.3265 1.01203 63.0008 1.01403 61.6772C1.01403 60.3595 1.36994 60.0136 2.7156 60.0056C2.91355 60.0056 3.1115 60.0056 3.41343 60.0056V59.1038C3.41343 47.2068 3.41343 35.3098 3.41343 23.4147C3.41343 21.9351 3.73335 21.6172 5.21298 21.6172C19.2095 21.6172 33.204 21.6172 47.2005 21.6172C48.6801 21.6172 49 21.9391 49 23.4167C49 35.2878 49 47.1608 49 59.0318V60.0076L48.996 60.0016ZM5.86082 24.0486V40.7724H24.958V24.0646H20.2032C20.2032 25.9381 20.2032 27.7597 20.2032 29.5812C20.2032 30.8149 19.8173 31.2068 18.6056 31.2068C16.5321 31.2108 14.4567 31.2068 12.3832 31.2068C10.9435 31.2068 10.6076 30.8749 10.6076 29.4592C10.6076 27.6677 10.6076 25.8741 10.6076 24.0466H5.86082V24.0486ZM27.4554 24.0486V40.7724H46.5526V24.0646H41.7978C41.7978 25.9641 41.8018 27.8116 41.7978 29.6572C41.7958 30.7889 41.3879 31.2048 40.2742 31.2068C38.1747 31.2128 36.0753 31.2088 33.9778 31.2068C32.5381 31.2068 32.2022 30.8749 32.2022 29.4572C32.2022 27.6657 32.2022 25.8721 32.2022 24.0446H27.4574L27.4554 24.0486ZM5.82083 59.9536H24.944V43.2478H20.2032C20.2032 43.5317 20.2032 43.7756 20.2032 44.0196C20.2032 45.6932 20.2132 47.3688 20.1992 49.0423C20.1912 49.9321 19.7433 50.396 18.8656 50.4C16.5661 50.414 14.2667 50.414 11.9693 50.4C11.0515 50.396 10.6156 49.9361 10.6096 48.9923C10.5996 47.5427 10.6076 46.0931 10.6056 44.6434C10.6056 44.1775 10.6056 43.7137 10.6056 43.2638H5.82083V59.9516V59.9536ZM46.5326 59.9856V43.2618H41.7958C41.7958 45.1633 41.7998 47.0108 41.7958 48.8584C41.7938 49.9881 41.3859 50.402 40.2682 50.404C38.1687 50.41 36.0693 50.404 33.9718 50.404C32.5361 50.404 32.2002 50.0721 32.2002 48.6504C32.2002 46.8589 32.2002 45.0673 32.2002 43.2518H27.4574V59.9836H46.5346L46.5326 59.9856ZM70.5526 62.453H3.46741V64.7664H70.5546V62.453H70.5526ZM13.069 24.0266V28.7594H17.7478V24.0266H13.069ZM34.6636 24.0266V28.7594H39.3424V24.0266H34.6636ZM13.057 43.2398V47.9446H17.7638V43.2398H13.057ZM34.6416 43.2398V47.9546H39.3444V43.2398H34.6416ZM8.23422 69.5412H12.965V67.2438H8.23422V69.5412ZM39.3704 67.2578H34.6396V69.5552H39.3704V67.2578ZM65.7538 69.5672V67.2438H61.045V69.5672H65.7538Z" fill="black"/>
<path d="M53.8731 12.0115C54.9289 12.0115 55.9506 12.0115 56.9744 12.0115C58.2061 12.0135 58.594 12.3954 58.594 13.6151C58.594 21.5372 58.594 29.4612 58.594 37.3832C58.594 42.082 58.594 46.7788 58.594 51.5397H56.2145V14.4109C55.0668 14.4109 54.0011 14.4149 52.9354 14.4109C51.8076 14.4049 51.4018 14.003 51.3958 12.8773C51.3918 11.8776 51.3378 10.8738 51.4217 9.88007C51.4597 9.43019 51.6637 8.87632 51.9876 8.5884C55.0428 5.85708 58.1361 3.16775 61.2253 0.474425C61.9411 -0.151419 62.437 -0.159417 63.1448 0.458429C66.234 3.15176 69.3273 5.83908 72.3825 8.5704C72.7084 8.86033 72.9264 9.41019 72.9624 9.85808C73.0463 10.9018 72.9984 11.9556 72.9864 13.0053C72.9744 13.9751 72.5345 14.4029 71.5447 14.4109C70.451 14.4209 69.3573 14.4129 68.2096 14.4129V51.5477H65.7902V50.7539C65.7902 38.4069 65.7902 26.06 65.7902 13.7131C65.7902 12.3754 66.1461 12.0155 67.4637 12.0135C68.4815 12.0135 69.4992 12.0135 70.517 12.0135C70.7149 10.8938 70.6029 10.058 69.6432 9.28022C67.3158 7.3927 65.1083 5.3572 62.8509 3.3837C62.6469 3.20574 62.435 3.03578 62.1831 2.82584C60.6634 4.15351 59.1618 5.46518 57.6622 6.77685C56.7224 7.59864 55.8406 8.50842 54.8229 9.22024C53.7992 9.93806 53.6372 10.8298 53.8711 12.0115H53.8731Z" fill="black"/>
<path d="M17.7935 14.4129V19.1717H15.4041C15.4041 18.8198 15.4041 18.4579 15.4041 18.094C15.4041 16.5444 15.3981 14.9948 15.4061 13.4451C15.4121 12.4594 15.842 12.0255 16.8198 12.0155C17.9155 12.0055 19.0112 12.0135 20.145 12.0135C20.2849 10.9358 20.2489 10.092 19.2792 9.30019C16.7438 7.2347 14.3304 5.01926 11.817 2.81781C11.2952 3.26769 10.7893 3.70159 10.2874 4.13948C8.36791 5.81706 6.49237 7.54662 4.51287 9.14822C3.56511 9.91403 3.16521 10.7338 3.50112 12.0115C4.50087 12.0115 5.56261 12.0095 6.62634 12.0115C7.80405 12.0155 8.20195 12.4094 8.20395 13.5831C8.20794 15.4287 8.20395 17.2722 8.20395 19.1637H5.82054V14.4109C4.70482 14.4109 3.63909 14.4149 2.57535 14.4109C1.40365 14.4069 1.00974 14.011 1.00375 12.8333C0.999747 11.8595 0.939762 10.8778 1.02974 9.91203C1.07373 9.44015 1.28967 8.8643 1.62959 8.56037C4.66883 5.84505 7.74606 3.17372 10.8133 0.494387C11.5631 -0.161449 12.045 -0.165448 12.7908 0.486389C15.86 3.16372 18.9353 5.83505 21.9705 8.55237C22.3104 8.8563 22.5304 9.43215 22.5764 9.90204C22.6683 10.8678 22.6063 11.8495 22.6043 12.8233C22.6003 14.007 22.2064 14.4089 21.0447 14.4129C19.999 14.4169 18.9533 14.4129 17.7975 14.4129H17.7935Z" fill="black"/>
<path d="M31.0263 14.4122C29.7926 14.4122 28.6949 14.4222 27.5972 14.4102C26.6614 14.4002 26.2175 13.9623 26.2055 13.0326C26.1915 11.9588 26.1495 10.8791 26.2275 9.81136C26.2595 9.38747 26.4775 8.8676 26.7874 8.58967C29.8446 5.86035 32.9378 3.17102 36.0251 0.477695C36.7649 -0.166144 37.2448 -0.160145 38.0026 0.501689C41.0518 3.16302 44.111 5.81636 47.1243 8.51768C47.4802 8.8376 47.7181 9.43346 47.7641 9.92533C47.8621 10.9411 47.8021 11.9728 47.7901 12.9966C47.7801 13.9703 47.3422 14.4002 46.3565 14.4082C45.2628 14.4182 44.169 14.4102 43.0193 14.4102V19.151H40.5939V16.1898C40.5939 15.366 40.5939 14.5402 40.5939 13.7164C40.5939 12.3527 40.9438 12.0108 42.3355 12.0108C43.3292 12.0108 44.323 12.0108 45.3107 12.0108C45.5507 10.8551 45.3567 10.0213 44.393 9.23151C41.8816 7.17802 39.4862 4.98657 36.9988 2.80911C35.4672 4.14678 33.9676 5.45845 32.468 6.77012C31.5282 7.59192 30.6424 8.49169 29.6307 9.21551C28.6289 9.93333 28.401 10.8071 28.6909 12.0088C29.7106 12.0088 30.7764 12.0048 31.8421 12.0088C32.9758 12.0128 33.3897 12.4167 33.3937 13.5304C33.3997 15.398 33.3937 17.2655 33.3937 19.169H31.0203V14.4062L31.0263 14.4122Z" fill="black"/>
</g>
<defs>
<clipPath id="clip0_10113_17586">
<rect width="72.026" height="72" fill="white" transform="translate(0.986328)"/>
</clipPath>
</defs>
</svg>
