<svg width="74" height="72" viewBox="0 0 74 72" fill="none" xmlns="http://www.w3.org/2000/svg">
<g clip-path="url(#clip0_10113_17579)">
<path d="M15.3947 67.247C15.3947 68.399 15.4047 69.497 15.3927 70.5949C15.3827 71.5329 14.9447 71.9849 14.0167 71.9889C11.7408 72.0009 9.46684 71.9989 7.1909 71.9889C6.25293 71.9849 5.80894 71.5409 5.79894 70.611C5.78494 69.511 5.79494 68.411 5.79494 67.189C4.73697 67.189 3.699 67.189 2.66103 67.189C1.37307 67.187 0.997076 66.8191 0.993076 65.5551C0.991076 64.3051 0.993076 63.0532 0.993076 61.8032C0.993076 60.3072 1.30707 59.9852 2.77703 59.9852C9.85283 59.9852 16.9286 59.9852 24.0064 59.9852H25.0004V59.0753C25.0004 47.1716 25.0004 35.2659 25.0004 23.3623C25.0004 21.8863 25.3204 21.5703 26.8084 21.5703C40.81 21.5703 54.8136 21.5703 68.8152 21.5703C70.2891 21.5703 70.6091 21.8923 70.6091 23.3783C70.6091 35.2579 70.6091 47.1376 70.6091 59.0173V59.9892C71.0331 59.9892 71.4011 59.9732 71.7671 59.9932C72.5211 60.0332 72.9891 60.4692 73.0011 61.2212C73.0251 62.7972 73.0251 64.3731 73.0011 65.9471C72.9891 66.7291 72.5091 67.171 71.6991 67.185C70.5751 67.203 69.4512 67.189 68.2092 67.189C68.2092 68.253 68.2092 69.291 68.2092 70.329C68.2072 71.6129 67.8352 71.9909 66.5693 71.9909C64.4193 71.9929 62.2694 71.9949 60.1174 71.9909C59.0335 71.9889 58.6155 71.5729 58.6095 70.5009C58.6035 69.429 58.6095 68.357 58.6095 67.239H41.8059C41.8059 68.327 41.8099 69.395 41.8059 70.463C41.7999 71.5829 41.3899 71.9909 40.26 71.9929C38.084 71.9969 35.9101 71.9969 33.7342 71.9929C32.6162 71.9909 32.2122 71.5769 32.2062 70.445C32.2022 69.397 32.2062 68.349 32.2062 67.247H15.3947ZM27.4523 24.0122V40.7458H46.5578V24.0282H41.8019C41.8019 25.9042 41.8019 27.7261 41.8019 29.5501C41.8019 30.7841 41.416 31.176 40.202 31.176C38.126 31.18 36.0521 31.176 33.9762 31.176C32.5362 31.176 32.2002 30.8441 32.2002 29.4261C32.2002 27.6321 32.2002 25.8382 32.2002 24.0102H27.4523V24.0122ZM63.4053 23.9922C63.4053 25.9562 63.4113 27.8521 63.4033 29.7461C63.3993 30.7281 62.9614 31.17 61.9854 31.174C59.7354 31.184 57.4855 31.182 55.2356 31.174C54.2516 31.17 53.8156 30.7341 53.8076 29.7561C53.7976 28.3061 53.8056 26.8562 53.8056 25.4062C53.8056 24.9422 53.8056 24.4782 53.8056 24.0382H49.0477V40.7318H68.1472V23.9922H63.4073H63.4053ZM41.8019 43.2137C41.8019 45.1437 41.8059 46.9936 41.8019 48.8416C41.7999 49.9715 41.392 50.3835 40.272 50.3855C38.172 50.3895 36.0721 50.3855 33.9722 50.3855C32.5382 50.3855 32.2022 50.0535 32.2022 48.6296C32.2022 46.8376 32.2022 45.0437 32.2022 43.2317H27.4583V59.9532H46.5598V43.2137H41.8059H41.8019ZM63.4053 43.2217C63.4053 45.1697 63.4113 47.0656 63.4033 48.9616C63.3993 49.9095 62.9634 50.3775 62.0554 50.3835C59.7554 50.3975 57.4555 50.3975 55.1556 50.3835C54.2676 50.3775 53.8176 49.9235 53.8096 49.0375C53.7956 47.3376 53.8056 45.6376 53.8036 43.9357C53.8036 43.6957 53.7816 43.4577 53.7716 43.2217H49.0497V59.9372H68.1712V43.2217H63.4053ZM70.5751 62.4472H3.42901V64.7531H70.5731V62.4472H70.5751ZM34.6381 24.0082V28.7301H39.346V24.0082H34.6381ZM60.9474 28.7441V24.0342H56.2435V28.7441H60.9474ZM34.6501 43.2137V47.9236H39.356V43.2137H34.6501ZM60.9674 43.2337H56.2595V47.9416H60.9674V43.2337ZM8.23487 67.227V69.549H12.9407V67.227H8.23487ZM34.6421 67.229V69.545H39.344V67.229H34.6421ZM61.0414 67.223V69.553H65.7553V67.223H61.0414Z" fill="black"/>
<path d="M11.8126 53.5771C13.5086 52.0931 15.1785 50.6311 16.8505 49.1692C17.6225 48.4932 18.3384 47.7372 19.1784 47.1652C20.2104 46.4613 20.3764 45.5613 20.1104 44.3833C19.0364 44.3833 17.9424 44.3893 16.8505 44.3833C15.8265 44.3753 15.3965 43.9473 15.3965 42.9133C15.3925 30.3577 15.3965 17.804 15.3965 5.24839C15.3965 5.1244 15.4085 5.0024 15.4165 4.82441H17.7865V41.9814C18.9364 41.9814 20.0044 41.9774 21.0724 41.9814C22.1883 41.9874 22.5923 42.3974 22.5963 43.5313C22.6003 44.5573 22.6463 45.5853 22.5723 46.6052C22.5423 47.0112 22.3483 47.5112 22.0543 47.7732C18.9564 50.5351 15.8265 53.2611 12.6966 55.987C12.0566 56.545 11.5306 56.539 10.8886 55.979C7.75873 53.2511 4.63082 50.5231 1.5309 47.7652C1.25091 47.5152 1.04092 47.0492 1.01892 46.6692C0.95092 45.5473 0.980919 44.4193 0.998918 43.2953C1.01292 42.4514 1.46091 41.9994 2.30288 41.9834C3.42685 41.9654 4.55082 41.9794 5.75879 41.9794V4.81641H8.19672C8.19672 5.0964 8.19672 5.36239 8.19672 5.63038C8.19672 17.96 8.19672 30.2897 8.19672 42.6194C8.19672 44.0473 7.86073 44.3813 6.43077 44.3833C5.45679 44.3833 4.48282 44.3833 3.46685 44.3833C3.33285 45.4033 3.28085 46.2433 4.24283 47.0272C6.66476 49.0012 8.9687 51.1151 11.3226 53.1731C11.4706 53.3011 11.6246 53.4211 11.8146 53.5771H11.8126Z" fill="black"/>
<path d="M31.0088 4.76777V0.00390625H33.3968C33.3968 0.459894 33.3968 0.923881 33.3968 1.38787C33.3968 2.86383 33.4068 4.33979 33.3928 5.81374C33.3828 6.70172 32.9328 7.14971 32.0468 7.16371C30.9268 7.17971 29.8069 7.16771 28.6649 7.16771C28.4869 8.26168 28.5689 9.10165 29.5269 9.88563C32.0588 11.9576 34.4767 14.1675 36.9727 16.3515C37.1627 16.2015 37.3427 16.0755 37.5066 15.9335C39.7666 13.9595 41.9805 11.9296 44.3025 10.0336C45.2584 9.25365 45.6124 8.42767 45.3164 7.16971C44.3005 7.16971 43.2365 7.17371 42.1725 7.16971C40.9986 7.16571 40.6046 6.76972 40.6006 5.59175C40.5966 3.7458 40.6006 1.89985 40.6006 0.011906H42.9625V4.76777C44.1065 4.76777 45.1724 4.76377 46.2364 4.76777C47.4044 4.77177 47.7964 5.16976 47.8004 6.35373C47.8044 7.3297 47.8644 8.30968 47.7744 9.27765C47.7304 9.74964 47.5124 10.3256 47.1724 10.6296C44.1365 13.3495 41.0605 16.0215 37.9886 18.6994C37.2427 19.3514 36.7567 19.3474 36.0107 18.6954C32.9408 16.0155 29.8629 13.3435 26.8289 10.6236C26.489 10.3196 26.269 9.74364 26.227 9.27365C26.137 8.25568 26.191 7.22571 26.201 6.19973C26.211 5.21176 26.637 4.77777 27.6149 4.76777C28.7109 4.75777 29.8069 4.76577 31.0128 4.76577L31.0088 4.76777Z" fill="black"/>
<path d="M70.5199 7.16733C69.416 7.16733 68.344 7.17333 67.27 7.16733C66.24 7.15933 65.8101 6.73534 65.8061 5.70737C65.7981 3.83343 65.8041 1.95748 65.8041 0.0255311H68.188V4.7674C69.336 4.7674 70.4039 4.7634 71.4719 4.7674C72.5959 4.7734 72.9999 5.17939 73.0059 6.30936C73.0099 7.30933 73.0659 8.3153 72.9799 9.30727C72.9419 9.75726 72.7339 10.3112 72.4099 10.6012C69.354 13.3352 66.258 16.0251 63.1681 18.719C62.4522 19.343 61.9562 19.343 61.2482 18.723C58.1583 16.0271 55.0624 13.3372 52.0064 10.6052C51.6824 10.3152 51.4665 9.76526 51.4285 9.31727C51.3425 8.3253 51.3985 7.31933 51.4025 6.31936C51.4065 5.18339 51.8084 4.7734 52.9244 4.7674C53.9924 4.7614 55.0604 4.7674 56.1843 4.7674V0.0195312H58.5843C58.5843 2.06347 58.6243 4.10542 58.5623 6.14536C58.5423 6.82734 57.9883 7.16333 57.2963 7.16733C56.1723 7.17133 55.0484 7.16733 53.8664 7.16733C53.7744 8.1413 53.6344 8.97728 54.5884 9.75526C57.0263 11.7472 59.3522 13.8771 61.7222 15.9511C61.8702 16.0791 62.0242 16.2011 62.2202 16.3611C63.7421 15.0311 65.2441 13.7192 66.746 12.4072C67.688 11.5852 68.568 10.6772 69.584 9.95925C70.6039 9.23927 70.7819 8.3533 70.5199 7.16933V7.16733Z" fill="black"/>
</g>
<defs>
<clipPath id="clip0_10113_17579">
<rect width="72.052" height="72" fill="white" transform="translate(0.974609)"/>
</clipPath>
</defs>
</svg>
